<svg width="21" height="22" viewBox="0 0 21 22" fill="none" xmlns="http://www.w3.org/2000/svg">
<path d="M17.68 1.48776C15.34 -0.85224 11.06 -0.38224 8.13 2.54776C6.53 4.14776 5.61 6.41776 5.59 8.00776C5.57 9.58776 5.85 11.8978 4.24 13.5078L0 17.7478L1.42 19.1678L5.66 14.9278C7.27 13.3178 9.58 13.5978 11.16 13.5778C12.74 13.5578 15.02 12.6378 16.62 11.0378C19.54 8.10776 20.02 3.82776 17.68 1.48776ZM8.48 10.6778C6.95 9.14776 7.43 6.06776 9.54 3.95776C11.65 1.84776 14.72 1.36776 16.26 2.89776C17.79 4.42776 17.31 7.50776 15.2 9.61776C13.09 11.7278 10.02 12.2078 8.48 10.6778Z" fill="black"/>
<path d="M16.16 15.9978C16.69 15.9978 17.2 16.2078 17.57 16.5878C18.35 17.3678 18.35 18.6378 17.57 19.4178C17.2 19.7878 16.69 19.9978 16.16 19.9978C15.63 19.9978 15.12 19.7878 14.75 19.4078C13.97 18.6278 13.97 17.3578 14.75 16.5778C15.12 16.2078 15.63 15.9978 16.16 15.9978ZM16.16 13.9978C15.14 13.9978 14.11 14.3878 13.33 15.1678C11.77 16.7278 11.77 19.2578 13.33 20.8278C14.11 21.6078 15.14 21.9978 16.16 21.9978C17.18 21.9978 18.21 21.6078 18.99 20.8278C20.55 19.2678 20.55 16.7378 18.99 15.1678C18.21 14.3878 17.18 13.9978 16.16 13.9978Z" fill="black"/>
</svg>
